<svg xmlns="http://www.w3.org/2000/svg" width="30.901" height="35.799" viewBox="0 0 30.901 35.799"><defs><style>.a{fill:#fff;}</style></defs><g transform="translate(-176.6 -89.7)"><path class="a" d="M207.077,121.346l-7.829-8.986a13.241,13.241,0,1,0-3.155,2.337l6.584,9.941a2.234,2.234,0,0,0,1.757.861,2.31,2.31,0,0,0,1.393-.469l.739-.554a2.3,2.3,0,0,0,.9-1.47A2.124,2.124,0,0,0,207.077,121.346Zm-29.2-18.373a12,12,0,1,1,12,12A12.01,12.01,0,0,1,177.876,102.973ZM206.213,122.8a1.056,1.056,0,0,1-.409.662l-.739.554a1.056,1.056,0,0,1-.751.208.863.863,0,0,1-.591-.313l-6.533-9.864a13.75,13.75,0,0,0,1.114-.824l7.764,8.909A.892.892,0,0,1,206.213,122.8Z"/></g></svg>